HIERARCHY
ROOT SpineBase
{
  OFFSET 0.000000 0.000000 0.000000
  CHANNELS 6 Xposition Yposition Zposition Zrotation Xrotation Yrotation
  JOINT SpineMid
  {
    OFFSET 0.000000 26.960693 0.000000
    CHANNELS 3 Zrotation Xrotation Yrotation
    JOINT SpineShoulder
    {
      OFFSET -0.064180 20.113527 -0.491089
      CHANNELS 3 Zrotation Xrotation Yrotation
      JOINT Neck
      {
        OFFSET -0.033135 6.634228 -0.443946
        CHANNELS 3 Zrotation Xrotation Yrotation
        JOINT Head
        {
          OFFSET -2.539607 12.486027 -0.125712
          CHANNELS 3 Zrotation Xrotation Yrotation
          End Site
          {
            OFFSET 0 0 0
          }
        }
      }
      JOINT ShoulderLeft
      {
        OFFSET -14.029383 -3.981643 6.828213
        CHANNELS 3 Zrotation Xrotation Yrotation
        JOINT ElbowLeft
        {
          OFFSET 1.575067 -23.866359 -12.099482
          CHANNELS 3 Zrotation Xrotation Yrotation
          JOINT WristLeft
          {
            OFFSET -0.775814 -24.397453 -0.035610
            CHANNELS 3 Zrotation Xrotation Yrotation
            JOINT HandLeft
            {
              OFFSET -2.334210 -2.102118 -0.938026
              CHANNELS 3 Zrotation Xrotation Yrotation
              JOINT HandTipLeft
              {
                OFFSET -0.784412 -1.908790 1.569588
                CHANNELS 3 Zrotation Xrotation Yrotation
                End Site
                {
                  OFFSET 0 0 0
                }
              }
              JOINT ThumbLeft
              {
                OFFSET -1.349392 -0.351316 0.305888
                CHANNELS 3 Zrotation Xrotation Yrotation
                End Site
                {
                  OFFSET 0 0 0
                }
              }
            }
          }
        }
      }
      JOINT ShoulderRight
      {
        OFFSET 9.815316 -4.629656 -11.086249
        CHANNELS 3 Zrotation Xrotation Yrotation
        JOINT ElbowRight
        {
          OFFSET 3.489086 -24.139038 -3.097535
          CHANNELS 3 Zrotation Xrotation Yrotation
          JOINT WristRight
          {
            OFFSET -1.275171 -19.265752 -3.311945
            CHANNELS 3 Zrotation Xrotation Yrotation
            JOINT HandRight
            {
              OFFSET -2.415092 -4.118527 -2.284505
              CHANNELS 3 Zrotation Xrotation Yrotation
              JOINT HandTipRight
              {
                OFFSET -1.270664 -4.848147 -1.552926
                CHANNELS 3 Zrotation Xrotation Yrotation
                End Site
                {
                  OFFSET 0 0 0
                }
              }
              JOINT ThumbRight
              {
                OFFSET -3.080972 -0.497043 -3.353122
                CHANNELS 3 Zrotation Xrotation Yrotation
                End Site
                {
                  OFFSET 0 0 0
                }
              }
            }
          }
        }
      }
    }
  }
  JOINT HipLeft
  {
    OFFSET -5.100235 0.701295 0.473247
    CHANNELS 3 Zrotation Xrotation Yrotation
    JOINT KneeLeft
    {
      OFFSET -10.669353 -25.182487 -24.387954
      CHANNELS 3 Zrotation Xrotation Yrotation
      JOINT AnkleLeft
      {
        OFFSET 11.926486 -30.308267 22.856313
        CHANNELS 3 Zrotation Xrotation Yrotation
        JOINT FootLeft
        {
          OFFSET -4.930911 -3.683627 -9.796083
          CHANNELS 3 Zrotation Xrotation Yrotation
          End Site
          {
            OFFSET 0 0 0
          }
        }
      }
    }
  }
  JOINT HipRight
  {
    OFFSET 4.829805 0.635526 -6.836416
    CHANNELS 3 Zrotation Xrotation Yrotation
    JOINT KneeRight
    {
      OFFSET 8.212017 -35.927134 6.386390
      CHANNELS 3 Zrotation Xrotation Yrotation
      JOINT AnkleRight
      {
        OFFSET 4.588732 -28.293004 4.194860
        CHANNELS 3 Zrotation Xrotation Yrotation
        JOINT FootRight
        {
          OFFSET -5.389114 -3.384961 -10.676405
          CHANNELS 3 Zrotation Xrotation Yrotation
          End Site
          {
            OFFSET 0 0 0
          }
        }
      }
    }
  }
}
MOTION
Frames: 10
Frame Time: 0.033333
15.282852 71.364780 352.517108 -0.000000 0.000000 36.357386 0.000000 0.000000 -36.357386 -0.000000 0.000000 0.000000 -0.000000 0.000000 0.000000 0.000000 0.000000 0.000000 -0.000000 0.000000 0.000000 -0.000000 0.000000 0.000000 -0.000000 0.000000 0.000000 -0.000000 0.000000 0.000000 0.000000 0.000000 0.000000 0.000000 0.000000 0.000000 -0.000000 0.000000 0.000000 -0.000000 0.000000 0.000000 -0.000000 0.000000 0.000000 -0.000000 0.000000 0.000000 0.000000 0.000000 0.000000 0.000000 0.000000 0.000000 0.000000 0.000000 -36.357386 -0.000000 0.000000 0.000000 -0.000000 0.000000 0.000000 0.000000 0.000000 0.000000 0.000000 0.000000 -36.357386 -0.000000 0.000000 0.000000 -0.000000 0.000000 0.000000 0.000000 0.000000 0.000000
15.186121 71.080086 352.344587 -0.120774 0.208243 36.500437 -0.026784 -0.239236 -36.500273 -0.000000 0.000000 0.000000 -0.000000 0.000000 0.000000 0.000000 0.000000 0.000000 -1.977043 -14.552878 -0.230893 -5.786281 6.760435 1.424304 -1.685622 -13.059000 25.637748 4.371540 19.698566 -35.664136 0.000000 0.000000 0.000000 0.000000 0.000000 0.000000 3.161701 -2.698152 -0.720697 -13.926421 9.355218 3.326050 4.964745 -8.003290 2.061919 -1.026980 -1.376104 -0.899988 0.000000 0.000000 0.000000 0.000000 0.000000 0.000000 -1.944012 -9.527273 -36.917327 -5.554784 12.312930 1.250459 1.391646 -3.767700 -0.376696 0.000000 0.000000 0.000000 -0.026784 -0.239236 -36.500273 -0.000000 0.000000 0.000000 2.624095 -6.207081 2.215558 0.000000 0.000000 0.000000
15.087592 70.884656 352.220426 -0.232913 0.372478 36.505461 -0.034369 -0.437957 -36.504835 -0.000000 0.000000 0.000000 -0.000000 0.000000 0.000000 0.000000 0.000000 0.000000 -3.875138 -24.909532 -0.633545 -9.387703 11.587505 3.563315 3.768904 -21.031207 40.572678 6.925651 38.804373 -58.819108 0.000000 0.000000 0.000000 0.000000 0.000000 0.000000 5.900151 -4.438861 -1.167901 -26.647792 15.776334 7.778457 7.718091 -14.620160 3.931178 -1.492365 -1.743431 -2.255608 0.000000 0.000000 0.000000 0.000000 0.000000 0.000000 -4.357569 -20.432004 -37.867039 -12.503565 25.661334 4.157956 2.739011 -7.451423 -0.653710 0.000000 0.000000 0.000000 -0.034369 -0.437957 -36.504835 -0.000000 0.000000 0.000000 6.095254 -13.450598 5.498548 0.000000 0.000000 0.000000
14.987265 70.778490 352.144627 -0.337225 0.494257 36.375082 -0.021606 -0.597947 -36.373740 -0.000000 0.000000 0.000000 -0.000000 0.000000 0.000000 0.000000 0.000000 0.000000 -5.631359 -31.202326 -0.968327 -11.298598 14.260811 5.064964 10.043307 -24.665848 48.995186 9.312312 55.501315 -73.962580 0.000000 0.000000 0.000000 0.000000 0.000000 0.000000 8.259367 -5.197913 -1.431284 -38.510323 19.806654 12.423538 8.692334 -20.233314 5.296028 -1.902587 -1.209073 -3.727529 0.000000 0.000000 0.000000 0.000000 0.000000 0.000000 -7.245344 -31.754838 -39.391968 -21.529907 38.736778 9.573041 4.000592 -10.899025 -0.830627 0.000000 0.000000 0.000000 -0.021606 -0.597947 -36.373740 0.119915 -0.993060 -0.142039 10.571435 -20.390185 10.173103 0.000000 0.000000 0.000000
14.885139 70.761588 352.117188 -0.434407 0.574587 36.107827 0.012367 -0.720208 -36.105571 -0.000000 0.000000 0.000000 -0.000000 0.000000 0.000000 0.000000 0.000000 0.000000 -7.215637 -34.030138 -1.025744 -11.739405 15.176382 5.364612 15.810724 -26.835171 54.523017 15.174515 68.705445 -87.723476 0.000000 0.000000 0.000000 0.000000 0.000000 0.000000 10.272290 -4.936804 -1.579803 -49.777878 22.056295 16.688724 8.355960 -25.183097 5.922840 -2.820678 0.407643 -4.914433 0.000000 0.000000 0.000000 0.000000 0.000000 0.000000 -10.519177 -42.214437 -41.541130 -33.345459 49.840602 18.350348 5.133115 -13.962478 -0.918077 0.000000 0.000000 0.000000 0.842122 -1.255508 -35.903526 -0.906561 -1.472075 -0.404376 16.503691 -27.868923 16.445948 0.000000 0.000000 0.000000
14.781215 70.833951 352.138110 -0.525068 0.613946 35.698151 0.068185 -0.804963 -35.694859 -0.000000 0.000000 0.000000 -0.000000 0.000000 0.000000 0.000000 0.000000 0.000000 -8.635086 -33.648051 -0.613839 -10.694673 14.556547 4.213196 21.351533 -28.821441 59.075929 32.526279 78.153911 -110.044188 0.000000 0.000000 0.000000 0.000000 0.000000 0.000000 11.957261 -3.581552 -1.663968 -60.751405 23.080648 20.235421 7.260711 -29.714272 5.627357 -4.930570 3.523520 -5.203521 0.000000 0.000000 0.000000 0.000000 0.000000 0.000000 -13.933302 -50.861250 -44.123289 -47.920926 57.670510 30.519259 6.094633 -16.514269 -0.936002 0.000000 0.000000 0.000000 1.517240 -0.988905 -35.285431 -1.287850 -2.577321 -0.698214 23.631935 -34.314103 24.221952 0.000000 0.000000 0.000000
14.692758 70.945169 352.243243 -0.736674 0.831719 35.957405 0.107993 -1.105779 -35.951016 -0.000000 0.000000 0.000000 1.292205 -0.879149 -0.155525 0.000000 0.000000 0.000000 -11.329761 -27.699785 1.261544 -9.154912 11.774052 0.880522 30.911357 -33.139547 65.270878 38.279732 80.157987 -116.436798 0.000000 0.000000 0.000000 0.000000 0.000000 0.000000 14.373549 -1.414352 -1.849308 -75.679953 23.819923 24.679110 9.011200 -36.050788 4.360731 -15.297691 9.026519 -1.028221 0.000000 0.000000 0.000000 0.000000 0.000000 0.000000 -22.183514 -61.669977 -51.889771 -75.475133 63.378002 54.916781 6.421843 -19.590632 1.619112 0.000000 0.000000 0.000000 2.223242 -1.006042 -35.316577 -1.886249 -3.580771 -1.021001 39.240294 -41.534244 45.911345 0.000000 0.000000 0.000000
14.541995 71.199135 352.386096 -0.560191 0.694156 35.726016 0.049477 -0.890619 -35.722237 -0.000000 0.000000 0.000000 -0.000000 0.000000 0.000000 0.000000 0.000000 0.000000 -12.106915 -14.559154 3.922443 -3.465515 0.462566 -4.507738 37.851314 -32.897555 69.739877 13.906173 62.053043 -79.726201 0.000000 0.000000 0.000000 0.000000 0.000000 0.000000 16.138234 1.865823 -2.033365 -89.472379 24.358571 27.932936 9.757734 -43.884986 1.929768 -18.590147 18.182768 3.066268 0.000000 0.000000 0.000000 0.000000 0.000000 0.000000 -27.992929 -66.545929 -57.018171 -92.866196 64.058957 70.823180 7.321993 -21.325037 0.995468 0.000000 0.000000 0.000000 3.901226 0.297173 -34.534679 -2.860516 -6.623263 -1.869360 37.665359 -41.228285 39.421025 0.000000 0.000000 0.000000
14.421393 71.570201 352.530732 -0.844334 0.136448 33.715409 -0.142427 -0.270115 -33.737321 0.812813 0.167580 0.019192 -0.338326 2.460927 0.504889 0.000000 0.000000 0.000000 -12.719538 -5.880371 5.613731 13.711086 2.523621 -6.757822 35.113510 -38.630078 76.384111 7.760326 73.884482 -79.727215 0.000000 0.000000 0.000000 0.000000 0.000000 0.000000 16.762584 7.671012 -2.124151 -99.708307 24.308550 27.105389 8.999873 -46.406496 -1.253866 -19.490163 23.469085 6.243339 0.000000 0.000000 0.000000 0.000000 0.000000 0.000000 -24.209027 -68.152336 -53.442980 -95.341465 63.842732 73.042861 8.486485 -20.910339 -2.042621 0.000000 0.000000 0.000000 6.483695 2.386224 -31.916851 -4.489278 -10.314408 -3.099035 38.128762 -39.592775 41.301448 0.000000 0.000000 0.000000
14.335226 72.026490 352.651623 -0.880025 -0.421015 29.805939 -0.496021 -0.356822 -29.844836 0.335928 0.181353 -0.028112 0.487601 4.573043 0.832207 0.000000 0.000000 0.000000 -8.508073 -6.577187 3.976044 43.287930 22.845575 -14.525057 36.628257 -46.905353 96.588823 87.635533 12.074561 -106.175308 0.000000 0.000000 0.000000 0.000000 0.000000 0.000000 16.696234 15.864900 -2.070816 -107.912489 25.891394 24.980910 7.421460 -47.810707 -5.132149 -18.786845 27.869448 9.238541 0.000000 0.000000 0.000000 0.000000 0.000000 0.000000 -10.753430 -64.433517 -39.777586 -79.435893 63.719751 58.633859 10.033894 -18.071979 -8.993684 0.000000 0.000000 0.000000 6.172785 4.693222 -28.089838 -2.809706 -11.094601 -2.895875 37.904234 -42.488984 33.113485 0.000000 0.000000 0.000000
